# xmcd CD database file
#
# Track frame offsets:
#	150
#	16017
#	30984
#	46810
#	62930
#	78433
#	93836
#	107428
#	123982
#	137286
#
# Disc length: 1982 seconds
#
# Revision: 0
# Processed by: cddbd v1.5.1PL0 Copyright (c) Steve Scherf et al.
# Submitted via: CDex 1.50
#
DISCID=6807bc0a
DTITLE=Ernest Tubb - Live From The Lonestar Cafe
DYEAR=1900
DGENRE=Country
TTITLE0=Oh Lonesome Me
TTITLE1=Thanks A Lot
TTITLE2=In The Jailhouse Now
TTITLE3=Waltz Across Texas
TTITLE4=A Month Of Sundays
TTITLE5=Rainbow At Midnight
TTITLE6=Filipino Bay
TTITLE7=Tomorrow Never Comes
TTITLE8=Slippin' Around
TTITLE9=Walkin' The Floor Over You
EXTD=
EXTT0=
EXTT1=
EXTT2=
EXTT3=
EXTT4=
EXTT5=
EXTT6=
EXTT7=
EXTT8=
EXTT9=
PLAYORDER=
